<svg width="922" height="881" viewBox="0 0 922 881" fill="none" xmlns="http://www.w3.org/2000/svg">
<path d="M476.5 856C708.734 856 897 670.424 897 441.5C897 212.578 708.734 27 476.5 27C244.264 27 56 212.578 56 441.5C56 670.424 244.264 856 476.5 856Z" stroke="#993600" stroke-width="50" stroke-linecap="round" stroke-linejoin="round"/>
<path d="M476.5 856C708.734 856 897 670.424 897 441.5C897 212.578 708.734 27 476.5 27C244.264 27 56 212.578 56 441.5C56 670.424 244.264 856 476.5 856Z" stroke="#C04C0D" stroke-width="50" stroke-dasharray="138 138"/>
<ellipse cx="443.5" cy="441.5" rx="442.5" ry="438.5" fill="#FFB236"/>
<path fill-rule="evenodd" clip-rule="evenodd" d="M261.815 356.653C261.815 356.653 287.606 367.578 286.692 394.708C285.79 421.851 203.269 433.632 203.269 540.743C203.269 647.854 317.205 732.034 443.98 732.034C570.743 732.034 743 653.949 743 497.33C743 234.378 724.048 416.586 526.601 416.586C461.028 416.586 449.329 393.063 459.688 379.649C508.664 316.32 526.602 150 366.745 150C262.441 152.277 237.252 241.433 237.415 263.034C237.515 278.212 222.333 283.346 145.875 280.252C126.635 354.217 261.815 356.653 261.815 356.653ZM309.038 220.201C322.867 220.201 334.09 232.008 334.09 246.527C334.09 261.06 322.867 272.854 309.038 272.854C295.222 272.854 283.986 261.06 283.986 246.527C283.986 232.008 295.222 220.201 309.038 220.201Z" fill="black"/>
<path d="M445.5 856C677.734 856 866 669.976 866 440.5C866 211.026 677.734 25 445.5 25C213.264 25 25 211.026 25 440.5C25 669.976 213.264 856 445.5 856Z" stroke="#FF6D1F" stroke-width="50" stroke-linecap="round" stroke-linejoin="round"/>
<path d="M458.256 636.303L462.257 635.725C469.272 634.71 475.695 631.3 480.331 626.091V626.09C484.961 620.885 487.496 614.232 487.423 607.345H487.424C487.424 593.12 476.938 585.044 463.118 579.204L458.256 577.149V636.303ZM425.663 486.928C420.786 488.616 416.562 491.738 413.603 495.876C410.663 499.987 409.124 504.893 409.226 509.907C409.18 514.878 410.611 519.745 413.323 523.943L413.59 524.349C416.481 528.644 420.603 532.017 425.439 534.072L430.309 536.142V485.319L425.663 486.928ZM430.309 565.299L428.033 564.448C394.001 551.736 378.178 533.246 378.149 510.231C378.655 497.665 383.833 485.654 392.797 476.362C401.781 467.049 413.978 461.085 427.204 459.58L430.309 459.227V428.691C430.309 425.246 431.74 421.91 434.346 419.422L434.347 419.421C436.955 416.928 440.527 415.5 444.282 415.5C447.92 415.5 451.386 416.84 453.974 419.191L454.222 419.422C456.825 421.91 458.256 425.247 458.256 428.691V458.868L461.237 459.314C470.497 460.701 479.364 463.855 487.304 468.586C495.243 473.317 502.091 479.521 507.441 486.822L507.537 486.954L507.646 487.076C509.612 489.293 510.757 492.038 510.939 494.889C510.986 496.512 510.695 498.132 510.077 499.661C509.45 501.206 508.502 502.626 507.28 503.831C506.06 505.034 504.587 505.997 502.944 506.661L502.943 506.662C501.309 507.323 499.544 507.665 497.758 507.664C495.902 507.653 494.081 507.262 492.419 506.518C490.752 505.772 489.283 504.693 488.112 503.37C481.494 495.494 472.795 489.485 462.938 485.949L458.256 484.271V547.717L460.508 548.575L467.028 551.062L467.036 551.065L467.043 551.068C499.752 563.371 518.479 580.448 518.499 606.555C518.125 620.815 512.077 634.436 501.537 644.638C490.981 654.854 476.713 660.862 461.631 661.4L458.256 661.521V692.309C458.256 695.756 456.823 699.097 454.221 701.583C451.611 704.076 448.041 705.5 444.282 705.5C440.523 705.5 436.953 704.076 434.347 701.584L434.345 701.582C431.741 699.096 430.309 695.755 430.309 692.309V661.162L427.352 660.698C416.218 658.951 405.565 655.106 396.016 649.395C386.465 643.68 378.211 636.213 371.727 627.438L371.672 627.362L371.612 627.29C369.648 624.908 368.566 622.004 368.5 619.018C368.503 617.368 368.854 615.727 369.536 614.2C370.181 612.758 371.112 611.437 372.283 610.312L372.521 610.09C373.808 608.916 375.339 607.995 377.021 607.395L377.024 607.393C378.709 606.79 380.51 606.521 382.315 606.603L382.404 606.606H382.493C384.239 606.597 385.96 606.958 387.532 607.658C389.087 608.351 390.455 609.366 391.544 610.613C400.308 621.519 412.169 629.746 425.685 634.329L430.309 635.897V565.299Z" fill="#FF6D1F" stroke="#FFB236" stroke-width="7"/>
</svg>
